# xmcd
#
# Track frame offsets:
#	187
#	13040
#	24337
#	38305
#	52490
#	63952
#	79350
#	92337
#	108102
#	122582
#	142372
#	156927
#	169045
#	183185
#	191800
#	207352
#	221177
#	230677
#	242587
#	253955
#	264282
#	276587
#	287120
#	298975
#
# Disc length: 4211 seconds
# Revision: 0
# Processed by: cddbd v1.5.2PL0 Copyright (c) Steve Scherf et al.
# Submitted via: dBpowerAMP V12.0
#
DISCID=71107118
DTITLE=Various Artist - God Bless The U.S.A. (4 of 4)
DYEAR=1992
DGENRE=Country
TTITLE0=Jerry Reed - East Bound And Down
TTITLE1=Tanya Tucker - Pecos Promenade
TTITLE2=Keith Carradine - I'm Easy
TTITLE3=Sissy Spacek - Coal Miner's Daughter
TTITLE4=Glen Campbell - True Grit
TTITLE5=Willie Nelson - Everybody's Talkin'
TTITLE6=Waylon Jennings - My Heroes Have Always Been Cowboys
TTITLE7=The Judds - Cow Cow Boogie
TTITLE8=Ronnie Milsap - Cowboys And Clowns
TTITLE9=Brenda Lee - The Cowgirl And The Dandy
TTITLE10=Charley Pride - Burgers And Fries
TTITLE11=The Statler Brothers - Class Of '57
TTITLE12=K. T. Oslin - Younger Men
TTITLE13=The Statler Brothers - Whatever Happened to Randolph Scott?
TTITLE14=George Burns - I Wish I Was Eighteen Again
TTITLE15=Eddy Arnold - The Missouri Waltz
TTITLE16=Patsy Cline - Blue Moon Of Kentucky
TTITLE17=Jim Reeves - I Love You Because
TTITLE18=Chet Atkins - El Paso
TTITLE19=Patti Page - Crazy Arms
TTITLE20=Willie Nelson - Wabash Cannon Ball
TTITLE21=Elvis Presley and Kathy WQestmoreland - America the Beautiful
TTITLE22=Elton Britt - There's A Star-Spangled Banner Waving Somewhere
TTITLE23=Donna Fargo - U. S. Of A.
EXTD=
EXTT0=
EXTT1=
EXTT2=
EXTT3=
EXTT4=
EXTT5=
EXTT6=
EXTT7=
EXTT8=
EXTT9=
EXTT10=
EXTT11=
EXTT12=
EXTT13=
EXTT14=
EXTT15=
EXTT16=
EXTT17=
EXTT18=
EXTT19=
EXTT20=
EXTT21=
EXTT22=
EXTT23=
PLAYORDER=
